<svg width="52" height="48" viewBox="0 0 52 48" fill="none" xmlns="http://www.w3.org/2000/svg">
<path fill-rule="evenodd" clip-rule="evenodd" d="M4.41666 0.666672C2.1615 0.666672 0.333328 2.49484 0.333328 4.75V12.9167C0.333328 15.1718 2.1615 17 4.41666 17H47.5833C49.8385 17 51.6667 15.1718 51.6667 12.9167V4.75C51.6667 2.49484 49.8385 0.666672 47.5833 0.666672H4.41666ZM47.5833 4.16667H4.41666C4.0945 4.16667 3.83333 4.42784 3.83333 4.75V12.9167C3.83333 13.2388 4.0945 13.5 4.41666 13.5H47.5833C47.9055 13.5 48.1667 13.2388 48.1667 12.9167V4.75C48.1667 4.42784 47.9055 4.16667 47.5833 4.16667Z" fill="#BDBDBD"/>
<path d="M4.41666 19.3333C5.38316 19.3333 6.16666 20.1168 6.16666 21.0833V43.25C6.16666 43.5722 6.42783 43.8333 6.75 43.8333H45.25C45.5722 43.8333 45.8333 43.5722 45.8333 43.25V21.0833C45.8333 20.1168 46.6168 19.3333 47.5833 19.3333C48.5498 19.3333 49.3333 20.1168 49.3333 21.0833V43.25C49.3333 45.5052 47.5052 47.3333 45.25 47.3333H6.75C4.49483 47.3333 2.66666 45.5052 2.66666 43.25V21.0833C2.66666 20.1168 3.45016 19.3333 4.41666 19.3333Z" fill="#BDBDBD"/>
<path d="M20.75 22.8333C19.7835 22.8333 19 23.6168 19 24.5833C19 25.5498 19.7835 26.3333 20.75 26.3333H31.25C32.2165 26.3333 33 25.5498 33 24.5833C33 23.6168 32.2165 22.8333 31.25 22.8333H20.75Z" fill="#BDBDBD"/>
</svg>
